<svg width="15" height="15" viewBox="0 0 15 15" fill="none" xmlns="http://www.w3.org/2000/svg">
<path d="M5.42188 14.375C4.98438 14.375 4.65625 14.2109 4.35938 13.8438L0.3125 8.85938C0.0859375 8.58594 -0.0078125 8.32812 -0.0078125 8.05469C-0.0078125 7.42969 0.453125 6.97656 1.09375 6.97656C1.47656 6.97656 1.74219 7.11719 2 7.4375L5.39062 11.7344L12.0078 1.25C12.2734 0.828125 12.5391 0.671875 12.9766 0.671875C13.6094 0.671875 14.0625 1.11719 14.0625 1.73438C14.0625 1.97656 13.9922 2.22656 13.8047 2.50781L6.49219 13.8203C6.24219 14.1953 5.88281 14.375 5.42188 14.375Z" fill="white"/>
</svg>
