<svg width="22" height="21" viewBox="0 0 22 21" fill="none" xmlns="http://www.w3.org/2000/svg">
<path d="M8.07178 20.9653C7.54688 20.9653 7.16846 20.7334 6.80225 20.2573L0.466797 12.1885C0.234863 11.8955 0.112793 11.5781 0.112793 11.2974C0.112793 10.626 0.588867 10.1499 1.28467 10.1499C1.72412 10.1499 2.0293 10.3208 2.33447 10.748L8.02295 18.1943L18.9849 0.726074C19.2778 0.262207 19.5464 0.103516 20.0347 0.103516C20.7061 0.103516 21.1455 0.542969 21.1455 1.21436C21.1455 1.49512 21.0601 1.76367 20.8403 2.11768L9.30469 20.2817C9.01172 20.7334 8.59668 20.9653 8.07178 20.9653Z" fill="white"/>
</svg>
