<svg width="21" height="18" viewBox="0 0 21 18" fill="none" xmlns="http://www.w3.org/2000/svg">
<path d="M2.72314 15.6602C0.988281 15.6602 0.116699 14.8052 0.116699 13.0869V2.95166C0.116699 1.2334 0.988281 0.378418 2.72314 0.378418H14.062C15.7969 0.378418 16.6602 1.2417 16.6602 2.95166V7.69141C16.4443 7.6665 16.2202 7.6499 16.0044 7.6499C15.7803 7.6499 15.5645 7.6665 15.3237 7.69141V5.33398C15.3237 4.57031 14.9087 4.17188 14.1699 4.17188H2.59863C1.85986 4.17188 1.45312 4.57031 1.45312 5.33398V13.1616C1.45312 13.9336 1.85986 14.3237 2.59863 14.3237H10.8247C10.9409 14.7969 11.1235 15.2451 11.3643 15.6602H2.72314ZM6.76562 7.15186C6.4751 7.15186 6.37549 7.06885 6.37549 6.77832V6.28857C6.37549 5.99805 6.4751 5.90674 6.76562 5.90674H7.25537C7.5459 5.90674 7.64551 5.99805 7.64551 6.28857V6.77832C7.64551 7.06885 7.5459 7.15186 7.25537 7.15186H6.76562ZM9.52979 7.15186C9.23096 7.15186 9.13965 7.06885 9.13965 6.77832V6.28857C9.13965 5.99805 9.23096 5.90674 9.52979 5.90674H10.0112C10.3018 5.90674 10.4014 5.99805 10.4014 6.28857V6.77832C10.4014 7.06885 10.3018 7.15186 10.0112 7.15186H9.52979ZM12.2856 7.15186C11.9951 7.15186 11.8955 7.06885 11.8955 6.77832V6.28857C11.8955 5.99805 11.9951 5.90674 12.2856 5.90674H12.7754C13.0659 5.90674 13.1572 5.99805 13.1572 6.28857V6.77832C13.1572 7.06885 13.0659 7.15186 12.7754 7.15186H12.2856ZM4.00977 9.86621C3.71924 9.86621 3.61963 9.7832 3.61963 9.49268V9.00293C3.61963 8.7124 3.71924 8.62939 4.00977 8.62939H4.49951C4.79004 8.62939 4.88135 8.7124 4.88135 9.00293V9.49268C4.88135 9.7832 4.79004 9.86621 4.49951 9.86621H4.00977ZM6.76562 9.86621C6.4751 9.86621 6.37549 9.7832 6.37549 9.49268V9.00293C6.37549 8.7124 6.4751 8.62939 6.76562 8.62939H7.25537C7.5459 8.62939 7.64551 8.7124 7.64551 9.00293V9.49268C7.64551 9.7832 7.5459 9.86621 7.25537 9.86621H6.76562ZM9.52979 9.86621C9.23096 9.86621 9.13965 9.7832 9.13965 9.49268V9.00293C9.13965 8.7124 9.23096 8.62939 9.52979 8.62939H10.0112C10.3018 8.62939 10.4014 8.7124 10.4014 9.00293V9.49268C10.4014 9.7832 10.3018 9.86621 10.0112 9.86621H9.52979ZM16.0044 17.2207C13.6885 17.2207 11.7876 15.3281 11.7876 13.0039C11.7876 10.6963 13.6885 8.78711 16.0044 8.78711C18.312 8.78711 20.2212 10.688 20.2212 13.0039C20.2212 15.3115 18.2871 17.2207 16.0044 17.2207ZM16.0044 15.6436C16.3115 15.6436 16.5107 15.4443 16.5107 15.1372V13.5103H18.1294C18.4365 13.5103 18.644 13.311 18.644 13.0039C18.644 12.6968 18.4365 12.4976 18.1294 12.4976H16.5107V10.8706C16.5107 10.5718 16.3115 10.3643 16.0044 10.3643C15.6973 10.3643 15.498 10.5718 15.498 10.8706V12.4976H13.8711C13.5723 12.4976 13.3647 12.6968 13.3647 13.0039C13.3647 13.311 13.5723 13.5103 13.8711 13.5103H15.498V15.1372C15.498 15.4443 15.6973 15.6436 16.0044 15.6436ZM4.00977 12.5889C3.71924 12.5889 3.61963 12.4976 3.61963 12.207V11.7173C3.61963 11.4268 3.71924 11.3438 4.00977 11.3438H4.49951C4.79004 11.3438 4.88135 11.4268 4.88135 11.7173V12.207C4.88135 12.4976 4.79004 12.5889 4.49951 12.5889H4.00977ZM6.76562 12.5889C6.4751 12.5889 6.37549 12.4976 6.37549 12.207V11.7173C6.37549 11.4268 6.4751 11.3438 6.76562 11.3438H7.25537C7.5459 11.3438 7.64551 11.4268 7.64551 11.7173V12.207C7.64551 12.4976 7.5459 12.5889 7.25537 12.5889H6.76562ZM9.52979 12.5889C9.23096 12.5889 9.13965 12.4976 9.13965 12.207V11.7173C9.13965 11.4268 9.23096 11.3438 9.52979 11.3438H10.0112C10.3018 11.3438 10.4014 11.4268 10.4014 11.7173V12.207C10.4014 12.4976 10.3018 12.5889 10.0112 12.5889H9.52979Z" fill="#D9D9D9"/>
</svg>
