<svg width="54" height="37" viewBox="0 0 54 37" fill="none" xmlns="http://www.w3.org/2000/svg">
<path d="M43.5781 20.1289C38.1289 20.1289 33.6562 15.6758 33.6562 10.207C33.6562 4.77734 38.1289 0.285156 43.5781 0.285156C49.0078 0.285156 53.5 4.77734 53.5 10.207C53.5 15.6367 48.9492 20.1289 43.5781 20.1289ZM7.11328 36.6523C3.03125 36.6523 0.980469 34.6406 0.980469 30.5977V6.78906C0.980469 2.86328 2.95312 0.910156 6.37109 0.910156H11.9375C13.8711 0.910156 14.8672 1.26172 16.1562 2.35547L17.3477 3.33203C18.3242 4.17188 19.125 4.48438 20.4531 4.48438H32.2695C31.7227 5.57812 31.4492 6.51562 31.2148 7.62891H19.6328C17.6992 7.62891 16.6641 7.25781 15.3945 6.20312L14.2031 5.20703C13.207 4.36719 12.4258 4.03516 11.1367 4.03516H7.01562C5.14062 4.03516 4.125 5.03125 4.125 6.96484V11.8281H31.0586C31.1562 12.8438 31.4102 13.8398 31.7617 14.7773H4.125V30.4414C4.125 32.4727 5.19922 33.5078 7.15234 33.5078H39.1445C41.0781 33.5078 42.1914 32.4727 42.1914 30.4609V22.707C43.207 22.8633 44.5547 22.8438 45.3359 22.707V30.5977C45.3359 34.6211 43.2852 36.6523 39.7891 36.6523H7.11328ZM43.5781 16.4375C44.3008 16.4375 44.7695 15.9492 44.7695 15.2266V11.418H48.5781C49.3008 11.418 49.7891 10.9492 49.7891 10.207C49.7891 9.48438 49.3008 9.01562 48.5781 9.01562H44.7695V5.20703C44.7695 4.48438 44.3008 4.01562 43.5781 4.01562C42.8359 4.01562 42.3672 4.48438 42.3672 5.20703V9.01562H38.5586C37.8359 9.01562 37.3672 9.48438 37.3672 10.207C37.3672 10.9492 37.8359 11.418 38.5586 11.418H42.3672V15.2266C42.3672 15.9492 42.8359 16.4375 43.5781 16.4375Z" fill="#D9D9D9"/>
</svg>
