<svg width="42" height="42" viewBox="0 0 42 42" fill="none" xmlns="http://www.w3.org/2000/svg">
<circle cx="21" cy="21" r="21" fill="#D9D9D9"/>
<path d="M19.0718 31.0873C18.5469 31.0873 18.1685 30.8553 17.8022 30.3793L11.4668 22.3104C11.2349 22.0175 11.1128 21.7001 11.1128 21.4193C11.1128 20.7479 11.5889 20.2719 12.2847 20.2719C12.7241 20.2719 13.0293 20.4427 13.3345 20.87L19.0229 28.3163L29.9849 10.848C30.2778 10.3842 30.5464 10.2255 31.0347 10.2255C31.7061 10.2255 32.1455 10.6649 32.1455 11.3363C32.1455 11.6171 32.0601 11.8856 31.8403 12.2396L20.3047 30.4037C20.0117 30.8553 19.5967 31.0873 19.0718 31.0873Z" fill="white"/>
</svg>
