<svg width="42" height="42" viewBox="0 0 42 42" fill="none" xmlns="http://www.w3.org/2000/svg">
<circle cx="21" cy="21" r="21" fill="#BBAFFF"/>
<path d="M19.0718 30.9653C18.5469 30.9653 18.1685 30.7334 17.8022 30.2573L11.4668 22.1885C11.2349 21.8955 11.1128 21.5781 11.1128 21.2974C11.1128 20.626 11.5889 20.1499 12.2847 20.1499C12.7241 20.1499 13.0293 20.3208 13.3345 20.748L19.0229 28.1943L29.9849 10.7261C30.2778 10.2622 30.5464 10.1035 31.0347 10.1035C31.7061 10.1035 32.1455 10.543 32.1455 11.2144C32.1455 11.4951 32.0601 11.7637 31.8403 12.1177L20.3047 30.2817C20.0117 30.7334 19.5967 30.9653 19.0718 30.9653Z" fill="white"/>
</svg>
