<svg width="25" height="25" viewBox="0 0 25 25" fill="none" xmlns="http://www.w3.org/2000/svg">
<path d="M0.807617 9.8916C0.807617 4.52051 5.17773 0.150391 10.5488 0.150391C15.9199 0.150391 20.29 4.52051 20.29 9.8916C20.29 12.1133 19.5454 14.1519 18.2881 15.7876L24.2573 21.7935C24.5137 22.0498 24.6602 22.4038 24.6602 22.7944C24.6602 23.6123 24.0864 24.2349 23.2563 24.2349C22.8657 24.2349 22.4995 24.1006 22.2188 23.8198L16.2129 17.8018C14.6138 18.9492 12.6729 19.6328 10.5488 19.6328C5.17773 19.6328 0.807617 15.2627 0.807617 9.8916ZM2.89502 9.8916C2.89502 14.1152 6.3252 17.5454 10.5488 17.5454C14.7725 17.5454 18.2026 14.1152 18.2026 9.8916C18.2026 5.66797 14.7725 2.23779 10.5488 2.23779C6.3252 2.23779 2.89502 5.66797 2.89502 9.8916Z" fill="#656565"/>
</svg>
