<svg width="624" height="625" viewBox="0 0 624 625" fill="none" xmlns="http://www.w3.org/2000/svg">
<circle cx="311.825" cy="311.825" r="311.825" fill="white"/>
<path d="M283.5 178.84C283.5 178.84 228.73 185.02 225.2 269.83C222.26 340.5 216.24 379.89 244.99 394.63C255.27 399.9 267.35 400.36 278.33 396.76L395.7 358.17C395.7 358.17 397.47 230.96 356.83 200.04C316.19 169.12 283.51 178.84 283.51 178.84H283.5Z" fill="#2F2E41"/>
<path d="M348.2 373.79L288.8 393.32V307.82H342.69L348.2 373.79Z" fill="#F6A6A9"/>
<path d="M428.22 601.09C420.22 604.33 412.06 607.24 403.75 609.8C397.5 611.74 391.16 613.47 384.75 615.01C361.36 620.65 336.93 623.63 311.82 623.63C304.76 623.63 297.76 623.4 290.83 622.93C283.74 622.46 276.72 621.75 269.78 620.8C266.96 620.42 264.16 620.01 261.37 619.55C253.42 618.26 245.56 616.65 237.82 614.76C235.21 614.13 232.61 613.46 230.02 612.74C229.13 612.51 228.24 612.26 227.36 612.01C223.71 610.98 220.08 609.89 216.48 608.72C216.24 608.65 215.99 608.57 215.75 608.49C212.53 607.45 209.33 606.35 206.15 605.2C203.29 604.17 200.45 603.09 197.62 601.97L259.33 398.86L261.9 390.41L271.02 360.4L271.09 360.16L271.16 359.94H378.93L379.65 363.45L397.32 449.89L410.05 512.19L422.57 573.42L427.72 598.62L428.22 601.09Z" fill="#DDDEDF"/>
<path d="M288.16 359.99L280.91 390.02L279.9 394.23L279.37 396.42L247.21 529.73L227.36 612.01C223.71 610.98 220.08 609.89 216.48 608.72C216.24 608.65 215.99 608.57 215.75 608.49C212.53 607.45 209.33 606.35 206.15 605.2C203.29 604.17 200.45 603.09 197.62 601.97C187.76 598.08 178.15 593.69 168.82 588.85C189.65 485.75 210.56 384.38 213.96 375.89C215.45 372.16 219.62 369.3 225.27 367.1C226.9 366.46 228.66 365.88 230.51 365.35C242.64 361.89 258.83 360.62 270.97 360.17H271.09C275.93 360 280.12 359.95 283.14 359.95C286.16 359.95 288.16 360 288.16 360V359.99Z" fill="#DDDEDF"/>
<path d="M296.15 331.49C328.84 331.49 355.34 304.99 355.34 272.3C355.34 239.61 328.84 213.11 296.15 213.11C263.46 213.11 236.96 239.61 236.96 272.3C236.96 304.99 263.46 331.49 296.15 331.49Z" fill="#F6A6A9"/>
<path d="M279.97 200.93C279.97 200.93 247.4 333.18 283.62 395.02L232.6 384.18C232.6 384.18 212.83 239.42 252.59 213.11L279.98 200.93H279.97Z" fill="#2F2E41"/>
<path opacity="0.1" d="M269.78 620.8C266.96 620.42 264.16 620.01 261.37 619.55C253.42 618.26 245.56 616.65 237.82 614.76C235.21 614.13 232.61 613.46 230.02 612.74L233.35 587.2L242.24 518.97L246.24 533.75L249.92 547.36L269.78 620.8Z" fill="#272223"/>
<path opacity="0.1" d="M437.55 597.14C435.37 598.11 433.18 599.05 430.97 599.96C430.64 600.1 430.31 600.24 429.98 600.38C429.4 600.62 428.82 600.86 428.23 601.09C420.23 604.33 412.07 607.24 403.76 609.8C384.02 595.83 368.81 576.37 360.03 553.83L355.35 541.82L325.37 454.98L391.79 524.67L403.93 543.89L422.58 573.41L437.56 597.13H437.55V597.14Z" fill="#272223"/>
<path d="M502.57 558.23C485.23 571.73 466.43 583.43 446.43 593.05C443.94 594.25 441.42 595.41 438.89 596.55C438.44 596.75 438 596.95 437.55 597.14C435.37 598.11 433.18 599.05 430.97 599.96C429.88 599.54 428.8 599.09 427.73 598.62C416.76 593.82 406.96 586.52 398.31 577.99C386.69 566.5 377.17 552.76 369.7 539.78C366.02 533.39 362.84 527.18 360.15 521.52L360.11 521.43C352.86 506.1 349.27 494.82 349.27 494.82L339.62 455.19L336.97 444.32L321.89 382.44L316.41 359.94L324.59 359.58L346.94 358.6L371.59 357.51C377.27 357.94 382.81 359 388.14 360.66C405.25 365.91 420.13 377.13 429.9 392.57C456.76 435.04 499.77 509.95 502.58 558.23H502.57Z" fill="#DDDEDF"/>
<path d="M221.73 332.37C234.7 327.7 269.03 327.68 284.43 332.88C287.42 333.89 289.23 336.93 288.71 340.04L288.1 343.73C289.44 343.53 290.75 343.15 291.99 342.58C295.66 340.9 302.89 338.62 310.19 342.26C315.29 344.8 318.88 349.59 320.14 355.16C323.15 368.48 315.56 375.85 315.56 375.85L305.45 385.34C296.98 393.28 287.74 400.36 277.87 406.46L277.67 406.58L281.27 384.92C283.3 388.49 287.89 389.66 291.38 387.5C300.2 382.04 314.61 371.1 312.86 358.68C311.64 350.02 306.83 348.18 302.21 348.57C297.04 349.01 292.53 352.26 290.32 356.95C289.79 358.07 288.92 358.99 287.84 359.59L285.24 361.01L277.62 406.92C277.28 408.98 275.96 410.76 274.09 411.68C256.17 420.47 236.83 415.91 230.14 413.86C228.61 413.39 227.3 412.38 226.48 411L225.04 408.61C224.54 407.79 224.24 406.86 224.14 405.91L217.49 339.09C217.2 336.14 218.95 333.38 221.74 332.37H221.73Z" fill="#7896FF"/>
<path d="M282.9 335.92C282.9 337.49 269.41 338.76 252.77 338.76C236.13 338.76 222.64 337.49 222.64 335.92C222.64 334.35 236.13 333.08 252.77 333.08C269.41 333.08 282.9 334.35 282.9 335.92Z" fill="#DEDFE0"/>
<path d="M297.47 398.64C286.13 382.34 285.72 363.17 296.55 355.81C307.38 348.45 325.34 355.69 336.68 372C341.3 378.45 344.24 385.93 345.26 393.82L392.38 463.49L357.8 485.39L315.02 414.39C307.93 410.63 301.91 405.23 297.47 398.65V398.64Z" fill="#F6A6A9"/>
<path d="M325.36 454.99L364.3 419.15L441.29 490.84L369.69 539.78L325.36 454.99Z" fill="#DDDEDF"/>
<path opacity="0.1" d="M434.49 500.78L437.55 524.29L417.15 500.78V477.07L434.49 500.78Z" fill="#272223"/>
</svg>
