<svg width="54" height="59" viewBox="0 0 54 59" fill="none" xmlns="http://www.w3.org/2000/svg">
<mask id="path-1-inside-1_3063_969" fill="white">
<path d="M21.5486 10C21.5486 4.47715 26.0257 0 31.5486 0H43.5486C49.0714 0 53.5486 4.47715 53.5486 10V59H21.5486V10Z"/>
</mask>
<path d="M21.5486 10C21.5486 4.47715 26.0257 0 31.5486 0H43.5486C49.0714 0 53.5486 4.47715 53.5486 10V59H21.5486V10Z" fill="white"/>
<path d="M19.5486 10C19.5486 3.37258 24.9212 -2 31.5486 -2H43.5486C50.176 -2 55.5486 3.37258 55.5486 10H51.5486C51.5486 5.58172 47.9669 2 43.5486 2H31.5486C27.1303 2 23.5486 5.58172 23.5486 10H19.5486ZM53.5486 59H21.5486H53.5486ZM19.5486 59V10C19.5486 3.37258 24.9212 -2 31.5486 -2V2C27.1303 2 23.5486 5.58172 23.5486 10V59H19.5486ZM43.5486 -2C50.176 -2 55.5486 3.37258 55.5486 10V59H51.5486V10C51.5486 5.58172 47.9669 2 43.5486 2V-2Z" fill="black" mask="url(#path-1-inside-1_3063_969)"/>
<rect x="1" y="29.1506" width="30.2581" height="12.0753" rx="4" fill="#FFD600" stroke="black" stroke-width="2"/>
<rect x="0.215576" y="34.2377" width="19.3548" height="1.56392" rx="0.78196" fill="black"/>
<ellipse cx="26.8817" cy="18.7671" rx="1.07527" ry="3.12784" fill="black"/>
<ellipse cx="32.2584" cy="18.7671" rx="1.07527" ry="3.12784" fill="black"/>
</svg>
