<svg width="21" height="33" viewBox="0 0 21 33" fill="none" xmlns="http://www.w3.org/2000/svg">
<path d="M2.47266 32.1123C1.49121 32.1123 0.919922 31.4678 0.919922 30.3252V4.89551C0.919922 2.1123 2.31152 0.691406 5.06543 0.691406H16.5205C19.2744 0.691406 20.666 2.1123 20.666 4.89551V30.3252C20.666 31.4678 20.0947 32.1123 19.1133 32.1123C18.3955 32.1123 17.9707 31.7021 16.6523 30.4277L10.9248 24.7881C10.8662 24.7148 10.7344 24.7148 10.6611 24.7881L4.93359 30.4277C3.61523 31.7021 3.19043 32.1123 2.47266 32.1123ZM3.67383 28.1572L10.0166 22.0049C10.4854 21.5508 11.1006 21.5508 11.5693 22.0049L17.9121 28.1572C18.1318 28.3623 18.3516 28.3037 18.3516 28.0107V4.9248C18.3516 3.66504 17.6924 3.00586 16.418 3.00586H5.18262C3.89355 3.00586 3.23438 3.66504 3.23438 4.9248V28.0107C3.23438 28.3037 3.46875 28.3623 3.67383 28.1572Z" fill="black"/>
</svg>
