<svg width="30" height="29" viewBox="0 0 30 29" fill="none" xmlns="http://www.w3.org/2000/svg">
<path d="M1.62695 28.0322C0.748047 28.0322 0.235352 27.4902 0.235352 26.5527V6.85059C0.235352 5.97168 0.572266 5.42969 1.31934 5.00488L8.76074 0.654297C9.22949 0.375977 9.74219 0.229492 10.2549 0.229492C10.7529 0.229492 11.251 0.375977 11.7197 0.654297L19.5566 5.42969L27.291 1.16699C27.6865 0.947266 28.0088 0.844727 28.3311 0.844727C29.21 0.844727 29.7227 1.37207 29.7227 2.30957V22.0264C29.7227 22.8906 29.4004 23.4473 28.6533 23.8721L21.0801 28.2373C20.626 28.501 20.1572 28.6328 19.6885 28.6328C19.2051 28.6328 18.6924 28.4863 18.1943 28.1934L10.1963 23.5645L2.68164 27.6953C2.27148 27.915 1.94922 28.0322 1.62695 28.0322ZM9.46387 21.8066V2.39746C9.28809 2.4707 9.1416 2.55859 8.96582 2.64648L2.52051 6.46973C2.16895 6.6748 2.05176 6.92383 2.05176 7.29004V25.4688C2.05176 25.6445 2.13965 25.7471 2.27148 25.7471C2.34473 25.7471 2.41797 25.7178 2.49121 25.6738L9.46387 21.8066ZM11.2803 21.9678L18.1211 25.9668C18.2969 26.0693 18.502 26.1719 18.6924 26.2451V7.07031L11.7344 2.83691C11.5879 2.74902 11.4268 2.66113 11.2803 2.60254V21.9678ZM20.4941 26.4355C20.6992 26.3477 20.8896 26.2451 21.0947 26.1279L27.4521 22.4072C27.7891 22.2021 27.9209 21.9385 27.9209 21.5869V3.39355C27.9209 3.21777 27.8184 3.11523 27.6865 3.11523C27.6133 3.11523 27.54 3.14453 27.4668 3.18848L20.4941 6.98242V26.4355Z" fill="black"/>
</svg>
