<svg width="43" height="35" viewBox="0 0 43 35" fill="none" xmlns="http://www.w3.org/2000/svg">
<path d="M22.7666 28.8643C19.7051 28.8643 17.6982 27.6631 16.834 25.4219L11.8535 29.8457C10.96 30.6221 10.4619 31.0029 9.74414 31.0029C8.71875 31.0029 8.14746 30.2852 8.14746 29.1572V25.334H7.44434C3.0791 25.334 0.735352 22.9316 0.735352 18.6396V7.4043C0.735352 3.1123 3.0791 0.695312 7.44434 0.695312H26.3115C30.6768 0.695312 33.0205 3.1123 33.0205 7.4043V8.09277H36.375C40.5938 8.09277 42.8057 10.3633 42.8057 14.5234V22.4482C42.8057 26.5938 40.5938 28.8643 36.375 28.8643H36.0674V32.3799C36.0674 33.4932 35.4961 34.2109 34.4854 34.2109C33.7822 34.2109 33.2988 33.8154 32.4053 33.0537L27.5127 28.8643H22.7666ZM10.3447 24.0889V28.3223L15.0322 23.6787C15.4717 23.2246 15.8232 23.0488 16.3506 23.0049C16.3506 22.8291 16.3359 22.6387 16.3359 22.4482V14.5234C16.3359 10.3633 18.5479 8.09277 22.7666 8.09277H30.6621V7.41895C30.6621 4.5625 29.2559 3.05371 26.3115 3.05371H7.44434C4.48535 3.05371 3.09375 4.5625 3.09375 7.41895V18.625C3.09375 21.4814 4.48535 22.9756 7.44434 22.9756H9.24609C10.0371 22.9756 10.3447 23.2832 10.3447 24.0889ZM22.8105 26.5059H27.4248C28.0254 26.5059 28.4355 26.667 28.9189 27.1211L33.8701 31.5449V27.707C33.8701 26.8867 34.3682 26.5059 34.998 26.5059H36.3457C39.2021 26.5059 40.4473 25.1582 40.4473 22.4043V14.5527C40.4473 11.8135 39.2021 10.4512 36.3457 10.4512H22.8105C19.9395 10.4512 18.709 11.8135 18.709 14.5527V22.4189C18.709 25.1582 19.9395 26.5059 22.8105 26.5059Z" fill="black"/>
</svg>
