<svg width="28" height="28" viewBox="0 0 28 28" fill="none" xmlns="http://www.w3.org/2000/svg">
<path d="M3.0332 13.2373C1.17285 13.2373 0.235352 12.2998 0.235352 10.3662V3.81836C0.235352 1.88477 1.17285 0.961914 3.0332 0.961914H9.71289C11.5732 0.961914 12.5107 1.88477 12.5107 3.81836V10.3662C12.5107 12.2998 11.5732 13.2373 9.71289 13.2373H3.0332ZM17.7402 13.2373C15.8652 13.2373 14.9277 12.2998 14.9277 10.3662V3.81836C14.9277 1.88477 15.8652 0.961914 17.7402 0.961914H24.4053C26.2656 0.961914 27.2031 1.88477 27.2031 3.81836V10.3662C27.2031 12.2998 26.2656 13.2373 24.4053 13.2373H17.7402ZM3.0625 11.1719H9.66895C10.1816 11.1719 10.4453 10.9082 10.4453 10.3662V3.81836C10.4453 3.29102 10.1816 3.02734 9.66895 3.02734H3.0625C2.5498 3.02734 2.30078 3.29102 2.30078 3.81836V10.3662C2.30078 10.9082 2.5498 11.1719 3.0625 11.1719ZM17.7695 11.1719H24.376C24.8887 11.1719 25.1377 10.9082 25.1377 10.3662V3.81836C25.1377 3.29102 24.8887 3.02734 24.376 3.02734H17.7695C17.2422 3.02734 16.9932 3.29102 16.9932 3.81836V10.3662C16.9932 10.9082 17.2422 11.1719 17.7695 11.1719ZM3.0332 27.9297C1.17285 27.9297 0.235352 27.0068 0.235352 25.0732V18.5107C0.235352 16.5918 1.17285 15.6543 3.0332 15.6543H9.71289C11.5732 15.6543 12.5107 16.5918 12.5107 18.5107V25.0732C12.5107 27.0068 11.5732 27.9297 9.71289 27.9297H3.0332ZM17.7402 27.9297C15.8652 27.9297 14.9277 27.0068 14.9277 25.0732V18.5107C14.9277 16.5918 15.8652 15.6543 17.7402 15.6543H24.4053C26.2656 15.6543 27.2031 16.5918 27.2031 18.5107V25.0732C27.2031 27.0068 26.2656 27.9297 24.4053 27.9297H17.7402ZM3.0625 25.8643H9.66895C10.1816 25.8643 10.4453 25.6006 10.4453 25.0732V18.5254C10.4453 17.9834 10.1816 17.7197 9.66895 17.7197H3.0625C2.5498 17.7197 2.30078 17.9834 2.30078 18.5254V25.0732C2.30078 25.6006 2.5498 25.8643 3.0625 25.8643ZM17.7695 25.8643H24.376C24.8887 25.8643 25.1377 25.6006 25.1377 25.0732V18.5254C25.1377 17.9834 24.8887 17.7197 24.376 17.7197H17.7695C17.2422 17.7197 16.9932 17.9834 16.9932 18.5254V25.0732C16.9932 25.6006 17.2422 25.8643 17.7695 25.8643Z" fill="black"/>
</svg>
