<svg width="31" height="38" viewBox="0 0 31 38" fill="none" xmlns="http://www.w3.org/2000/svg">
<mask id="path-1-outside-1_2704_1583" maskUnits="userSpaceOnUse" x="-1" y="-1" width="34" height="41" fill="black">
<rect fill="white" x="-1" y="-1" width="34" height="41"/>
<path d="M7.83984 6.29883V5.58105C7.83984 2.51953 9.36328 0.981445 12.3809 0.981445H26.1504C29.168 0.981445 30.6914 2.53418 30.6914 5.58105V25.9277C30.6914 28.9746 29.168 30.5273 26.1504 30.5273H25.5791V22.0605C25.5791 20.0684 25.2715 18.3691 23.6309 16.7139L15.3105 8.4082C13.6699 6.76758 12.0146 6.29883 9.96387 6.29883H7.83984ZM14.7539 5.1416C14.7539 5.58105 15.0469 6.00586 15.6914 6.00586H22.8398C23.4697 6.00586 23.7773 5.58105 23.7773 5.1416V4.83398C23.7773 4.37988 23.4697 3.96973 22.8398 3.96973H15.6914C15.0469 3.96973 14.7539 4.37988 14.7539 4.83398V5.1416ZM0.735352 33.2373V12.8906C0.735352 9.8291 2.25879 8.29102 5.27637 8.29102H10.5938V18.8965C10.5938 20.7715 11.4727 21.665 13.3623 21.665H23.5869V33.2373C23.5869 36.2842 22.0781 37.8369 19.0459 37.8369H5.27637C2.24414 37.8369 0.735352 36.2988 0.735352 33.2373ZM13.3477 19.6582C12.8496 19.6582 12.5859 19.4092 12.5859 18.9111V8.65723C13.1572 8.81836 13.7139 9.25781 14.3584 9.91699L22.1807 17.8857C22.8398 18.5596 23.1768 19.0869 23.3232 19.6582H13.3477Z"/>
</mask>
<path d="M7.83984 6.29883H6.33984V7.79883H7.83984V6.29883ZM25.5791 30.5273H24.0791V32.0273H25.5791V30.5273ZM23.6309 16.7139L24.6962 15.6579L24.6906 15.6523L23.6309 16.7139ZM15.3105 8.4082L14.2499 9.46886L14.2508 9.4698L15.3105 8.4082ZM10.5938 8.29102H12.0938V6.79102H10.5938V8.29102ZM23.5869 21.665H25.0869V20.165H23.5869V21.665ZM12.5859 8.65723L12.9931 7.21355L11.0859 6.67563V8.65723H12.5859ZM14.3584 9.91699L13.2859 10.9657L13.2879 10.9678L14.3584 9.91699ZM22.1807 17.8857L23.2529 16.8368L23.2511 16.835L22.1807 17.8857ZM23.3232 19.6582V21.1582H25.2564L24.7762 19.2856L23.3232 19.6582ZM9.33984 6.29883V5.58105H6.33984V6.29883H9.33984ZM9.33984 5.58105C9.33984 4.27972 9.66293 3.57491 10.0458 3.18745C10.4254 2.80327 11.1106 2.48145 12.3809 2.48145V-0.518555C10.6335 -0.518555 9.04827 -0.0713365 7.91175 1.0789C6.77847 2.22587 6.33984 3.82086 6.33984 5.58105H9.33984ZM12.3809 2.48145H26.1504V-0.518555H12.3809V2.48145ZM26.1504 2.48145C27.417 2.48145 28.1031 2.80503 28.4842 3.19167C28.8692 3.58221 29.1914 4.28885 29.1914 5.58105H32.1914C32.1914 3.82638 31.7519 2.23322 30.6208 1.08567C29.4858 -0.0657716 27.9014 -0.518555 26.1504 -0.518555V2.48145ZM29.1914 5.58105V25.9277H32.1914V5.58105H29.1914ZM29.1914 25.9277C29.1914 27.2199 28.8692 27.9266 28.4842 28.3171C28.1031 28.7038 27.417 29.0273 26.1504 29.0273V32.0273C27.9014 32.0273 29.4858 31.5746 30.6208 30.4231C31.7519 29.2756 32.1914 27.6824 32.1914 25.9277H29.1914ZM26.1504 29.0273H25.5791V32.0273H26.1504V29.0273ZM27.0791 30.5273V22.0605H24.0791V30.5273H27.0791ZM27.0791 22.0605C27.0791 19.8641 26.7259 17.7057 24.6962 15.6579L22.5655 17.7698C23.8171 19.0326 24.0791 20.2726 24.0791 22.0605H27.0791ZM24.6906 15.6523L16.3703 7.34661L14.2508 9.4698L22.5711 17.7755L24.6906 15.6523ZM16.3712 7.34754C14.3912 5.36749 12.322 4.79883 9.96387 4.79883V7.79883C11.7073 7.79883 12.9487 8.16767 14.2499 9.46886L16.3712 7.34754ZM9.96387 4.79883H7.83984V7.79883H9.96387V4.79883ZM13.2539 5.1416C13.2539 5.68638 13.4366 6.29305 13.8959 6.77424C14.3732 7.27426 15.0217 7.50586 15.6914 7.50586V4.50586C15.7166 4.50586 15.8963 4.52505 16.066 4.70281C16.2177 4.86173 16.2539 5.03627 16.2539 5.1416H13.2539ZM15.6914 7.50586H22.8398V4.50586H15.6914V7.50586ZM22.8398 7.50586C23.5106 7.50586 24.1518 7.26919 24.6237 6.78064C25.0792 6.30909 25.2773 5.70519 25.2773 5.1416H22.2773C22.2773 5.01747 22.3217 4.84569 22.4659 4.69641C22.6265 4.53013 22.799 4.50586 22.8398 4.50586V7.50586ZM25.2773 5.1416V4.83398H22.2773V5.1416H25.2773ZM25.2773 4.83398C25.2773 4.27175 25.0843 3.66089 24.6177 3.18331C24.1381 2.69244 23.4948 2.46973 22.8398 2.46973V5.46973C22.8148 5.46973 22.6402 5.45209 22.4719 5.27982C22.3166 5.12085 22.2773 4.94211 22.2773 4.83398H25.2773ZM22.8398 2.46973H15.6914V5.46973H22.8398V2.46973ZM15.6914 2.46973C15.0376 2.46973 14.3867 2.68749 13.9019 3.18968C13.4316 3.67671 13.2539 4.29063 13.2539 4.83398H16.2539C16.2539 4.92324 16.2227 5.10503 16.0601 5.27346C15.9806 5.35577 15.8918 5.40994 15.8128 5.44044C15.7364 5.46988 15.6894 5.46973 15.6914 5.46973V2.46973ZM13.2539 4.83398V5.1416H16.2539V4.83398H13.2539ZM2.23535 33.2373V12.8906H-0.764648V33.2373H2.23535ZM2.23535 12.8906C2.23535 11.5893 2.55844 10.8845 2.94128 10.497C3.32087 10.1128 4.00615 9.79102 5.27637 9.79102V6.79102C3.52901 6.79102 1.94377 7.23823 0.80726 8.38847C-0.326017 9.53544 -0.764648 11.1304 -0.764648 12.8906H2.23535ZM5.27637 9.79102H10.5938V6.79102H5.27637V9.79102ZM9.09375 8.29102V18.8965H12.0938V8.29102H9.09375ZM9.09375 18.8965C9.09375 20.0409 9.36041 21.1928 10.2066 22.0424C11.054 22.8932 12.2075 23.165 13.3623 23.165V20.165C12.6275 20.165 12.3967 19.9901 12.3322 19.9254C12.2665 19.8594 12.0938 19.627 12.0938 18.8965H9.09375ZM13.3623 23.165H23.5869V20.165H13.3623V23.165ZM22.0869 21.665V33.2373H25.0869V21.665H22.0869ZM22.0869 33.2373C22.0869 34.5331 21.7665 35.2389 21.384 35.628C21.0059 36.0124 20.3216 36.3369 19.0459 36.3369V39.3369C20.8024 39.3369 22.3886 38.885 23.523 37.7314C24.6529 36.5824 25.0869 34.9884 25.0869 33.2373H22.0869ZM19.0459 36.3369H5.27637V39.3369H19.0459V36.3369ZM5.27637 36.3369C3.99698 36.3369 3.31358 36.0142 2.93706 35.6322C2.5566 35.2462 2.23535 34.5423 2.23535 33.2373H-0.764648C-0.764648 34.9939 -0.331504 36.5897 0.800493 37.7382C1.93642 38.8906 3.52353 39.3369 5.27637 39.3369V36.3369ZM13.3477 18.1582C13.3477 18.1582 13.3507 18.1582 13.3564 18.1586C13.3622 18.159 13.371 18.1597 13.3825 18.1614C13.4055 18.1646 13.4414 18.1716 13.4867 18.1864C13.5816 18.2176 13.7069 18.2806 13.8252 18.3955C14.0812 18.6442 14.0859 18.9067 14.0859 18.9111H11.0859C11.0859 19.4136 11.2225 20.0497 11.7349 20.5474C12.2394 21.0375 12.8674 21.1582 13.3477 21.1582V18.1582ZM14.0859 18.9111V8.65723H11.0859V18.9111H14.0859ZM12.1787 10.1009C12.3428 10.1472 12.664 10.3296 13.2859 10.9657L15.4309 8.86832C14.7637 8.18599 13.9716 7.48954 12.9931 7.21355L12.1787 10.1009ZM13.2879 10.9678L21.1102 18.9365L23.2511 16.835L15.4289 8.86622L13.2879 10.9678ZM21.1084 18.9347C21.6782 19.5172 21.8161 19.8196 21.8702 20.0308L24.7762 19.2856C24.5374 18.3542 24.0015 17.602 23.2529 16.8368L21.1084 18.9347ZM23.3232 18.1582H13.3477V21.1582H23.3232V18.1582Z" fill="black" mask="url(#path-1-outside-1_2704_1583)"/>
</svg>
