<svg width="21" height="36" viewBox="0 0 21 36" fill="none" xmlns="http://www.w3.org/2000/svg">
<path d="M0.735352 9.95703C0.735352 4.90332 5.05664 0.933594 10.5352 0.933594C16.0137 0.933594 20.335 4.90332 20.335 9.95703C20.335 15.582 16.9805 16.9736 16.043 26.7441C15.9844 27.2715 15.6914 27.6084 15.1201 27.6084H5.9502C5.39355 27.6084 5.10059 27.2715 5.04199 26.7441C4.10449 16.9736 0.735352 15.582 0.735352 9.95703ZM2.94727 9.95703C2.94727 14.1611 5.73047 15.1572 7.06348 25.3965H14.0215C15.3398 15.1572 18.123 14.1611 18.123 9.95703C18.123 6.00195 14.6514 3.14551 10.5352 3.14551C6.41895 3.14551 2.94727 6.00195 2.94727 9.95703ZM5.90625 30.7725C5.42285 30.7725 5.04199 30.3916 5.04199 29.9082C5.04199 29.4395 5.42285 29.0586 5.90625 29.0586H15.1787C15.6621 29.0586 16.0283 29.4395 16.0283 29.9082C16.0283 30.3916 15.6621 30.7725 15.1787 30.7725H5.90625ZM10.5352 35.0205C8.25 35.0205 6.3457 33.9072 6.24316 32.2227H14.8418C14.6953 33.9072 12.8057 35.0205 10.5352 35.0205Z" fill="black"/>
</svg>
