<svg width="38" height="36" viewBox="0 0 38 36" fill="none" xmlns="http://www.w3.org/2000/svg">
<path d="M4.83398 7.97949C4.21875 7.97949 3.73535 7.49609 3.73535 6.86621C3.73535 6.25098 4.21875 5.76758 4.83398 5.76758H32.124C32.7393 5.76758 33.252 6.25098 33.252 6.86621C33.252 7.49609 32.7393 7.97949 32.124 7.97949H4.83398ZM15.6592 15.6553C15.0293 15.6553 14.5459 15.1719 14.5459 14.542C14.5459 13.9268 15.0293 13.4434 15.6592 13.4434H32.124C32.7393 13.4434 33.252 13.9268 33.252 14.542C33.252 15.1719 32.7393 15.6553 32.124 15.6553H15.6592ZM4.83398 23.3311C4.21875 23.3311 3.73535 22.833 3.73535 22.2178C3.73535 21.6025 4.21875 21.1191 4.83398 21.1191H32.124C32.7393 21.1191 33.252 21.6025 33.252 22.2178C33.252 22.833 32.7393 23.3311 32.124 23.3311H4.83398ZM15.6592 30.9922C15.0293 30.9922 14.5459 30.5088 14.5459 29.8936C14.5459 29.2783 15.0293 28.7803 15.6592 28.7803H32.124C32.7393 28.7803 33.252 29.2783 33.252 29.8936C33.252 30.5088 32.7393 30.9922 32.124 30.9922H15.6592Z" fill="white"/>
</svg>
