<svg width="25" height="25" viewBox="0 0 35 30" fill="none" xmlns="http://www.w3.org/2000/svg">
<path d="M5.89062 29.125C2.625 29.125 0.984375 27.5156 0.984375 24.2812V5.20312C0.984375 1.96875 2.625 0.359375 5.89062 0.359375H24.8438C28.125 0.359375 29.75 1.98438 29.75 5.20312V24.2812C29.75 27.5 28.125 29.125 24.8438 29.125H5.89062ZM5.92188 26.6094H24.8125C26.3594 26.6094 27.2344 25.7812 27.2344 24.1562V5.32812C27.2344 3.70312 26.3594 2.875 24.8125 2.875H5.92188C4.35938 2.875 3.5 3.70312 3.5 5.32812V24.1562C3.5 25.7812 4.35938 26.6094 5.92188 26.6094ZM10.0469 21.3281C9.35938 21.3281 8.79688 20.7656 8.79688 20.0625C8.79688 19.7188 8.9375 19.4219 9.17188 19.1875L13.6094 14.7344L9.17188 10.2812C8.9375 10.0469 8.79688 9.75 8.79688 9.40625C8.79688 8.71875 9.35938 8.17188 10.0469 8.17188C10.4062 8.17188 10.6875 8.29688 10.9219 8.54688L15.375 12.9844L19.875 8.53125C20.1406 8.26562 20.4062 8.14062 20.7344 8.14062C21.4375 8.14062 21.9844 8.70312 21.9844 9.39062C21.9844 9.73438 21.875 10 21.6094 10.2656L17.1562 14.7344L21.5938 19.1719C21.8438 19.4219 21.9688 19.7031 21.9688 20.0625C21.9688 20.7656 21.4219 21.3281 20.7188 21.3281C20.3594 21.3281 20.0625 21.1719 19.8281 20.9375L15.375 16.5L10.9531 20.9375C10.7188 21.1875 10.4062 21.3281 10.0469 21.3281Z" fill="black"/>
</svg>
