<svg width="20" height="29" viewBox="0 0 29 30" fill="none" xmlns="http://www.w3.org/2000/svg">
<path d="M14.6406 14.7188C10.9219 14.7188 7.89062 11.4375 7.89062 7.42188C7.89062 3.45312 10.9375 0.25 14.6406 0.25C18.375 0.25 21.3906 3.39062 21.3906 7.39062C21.3906 11.4219 18.3594 14.7188 14.6406 14.7188ZM14.6406 12.3594C16.9375 12.3594 18.875 10.1562 18.875 7.39062C18.875 4.65625 16.9688 2.60938 14.6406 2.60938C12.3281 2.60938 10.4062 4.70312 10.4062 7.42188C10.4062 10.1875 12.3594 12.3594 14.6406 12.3594ZM4.8125 29.1875C2.21875 29.1875 0.984375 28.4062 0.984375 26.6875C0.984375 22.5938 6.15625 16.6719 14.6406 16.6719C23.1094 16.6719 28.2812 22.5938 28.2812 26.6875C28.2812 28.4062 27.0469 29.1875 24.4531 29.1875H4.8125ZM4.07812 26.8281H25.2031C25.6094 26.8281 25.7656 26.7188 25.7656 26.3906C25.7656 23.8125 21.7969 19.0312 14.6406 19.0312C7.46875 19.0312 3.5 23.8125 3.5 26.3906C3.5 26.7188 3.67188 26.8281 4.07812 26.8281Z" fill="black"/>
</svg>
