<svg width="25" height="25" viewBox="0 0 45 30" fill="none" xmlns="http://www.w3.org/2000/svg">
<path d="M33.7031 29.2656L7.5625 3.15625C7.10938 2.70312 7.10938 1.90625 7.5625 1.45312C8.04688 0.984375 8.8125 0.984375 9.28125 1.45312L35.4062 27.5625C35.875 28.0469 35.9219 28.75 35.4062 29.2656C34.9219 29.7812 34.1719 29.75 33.7031 29.2656ZM21.5469 2.34375C34.1719 2.34375 42.8906 12.5312 42.8906 15.7344C42.8906 17.5781 39.9531 21.7812 35.0156 24.9844L33.0938 23.0625C37.4219 20.4062 40.1562 17 40.1562 15.7344C40.1562 13.875 31.8281 4.8125 21.5469 4.8125C19.6094 4.8125 17.8438 5.10938 16.125 5.625L14.0625 3.57812C16.3594 2.8125 18.8281 2.34375 21.5469 2.34375ZM21.5469 29.125C9.07812 29.125 0.1875 18.9219 0.1875 15.7344C0.1875 13.8438 3.28125 9.51562 8.48438 6.29688L10.4219 8.23438C5.8125 11 2.92188 14.6406 2.92188 15.7344C2.92188 17.9375 11.25 26.6562 21.5469 26.6562C23.6562 26.6562 25.625 26.3125 27.4844 25.7344L29.5312 27.7812C27.1094 28.6094 24.4531 29.125 21.5469 29.125ZM29.5625 19.1562L18.1094 7.70312C19.1562 7.25 20.3125 6.98438 21.5469 6.98438C26.4062 6.98438 30.3125 10.8438 30.3125 15.7344C30.3125 16.9375 30.0469 18.1094 29.5625 19.1562ZM21.5469 24.4844C16.6562 24.4844 12.7656 20.5 12.75 15.7344C12.75 14.3281 13.0781 13.0156 13.6562 11.8594L25.375 23.5781C24.2188 24.1406 22.9219 24.4844 21.5469 24.4844Z" fill="black"/>
</svg>
