<svg width="25" height="25" viewBox="0 0 45 30" fill="none" xmlns="http://www.w3.org/2000/svg">
<path d="M21.5469 27.125C9.07812 27.125 0.1875 16.9219 0.1875 13.7344C0.1875 10.5312 9.09375 0.34375 21.5469 0.34375C34.1562 0.34375 42.8906 10.5312 42.8906 13.7344C42.8906 16.9219 34.1719 27.125 21.5469 27.125ZM21.5469 24.6562C31.7969 24.6562 40.1562 15.9375 40.1562 13.7344C40.1562 11.875 31.7969 2.8125 21.5469 2.8125C11.25 2.8125 2.92188 11.875 2.92188 13.7344C2.92188 15.9375 11.25 24.6562 21.5469 24.6562ZM21.5469 22.4844C16.6562 22.4844 12.75 18.5 12.75 13.7344C12.75 8.84375 16.6562 4.98438 21.5469 4.98438C26.4062 4.98438 30.3125 8.84375 30.3125 13.7344C30.3125 18.5 26.4062 22.4844 21.5469 22.4844ZM21.5469 16.6406C23.1562 16.6406 24.4688 15.3281 24.4688 13.7344C24.4688 12.125 23.1562 10.8281 21.5469 10.8281C19.9219 10.8281 18.6094 12.125 18.6094 13.7344C18.6094 15.3281 19.9219 16.6406 21.5469 16.6406Z" fill="black"/>
</svg>
