<svg width="16" height="25" viewBox="0 0 22 31" fill="none" xmlns="http://www.w3.org/2000/svg">
<path d="M3.89062 30.6406C1.59375 30.6406 0.375 29.3906 0.375 26.9219V16.1562C0.375 13.9844 1.32812 12.7656 3.10938 12.5V8.71875C3.10938 2.84375 6.95312 0 11.0312 0C15.125 0 18.9688 2.84375 18.9688 8.71875V12.5C20.7656 12.7656 21.7031 14 21.7031 16.1562V26.9219C21.7031 29.3906 20.4844 30.6406 18.1875 30.6406H3.89062ZM5.59375 8.39062V12.4531H16.5V8.39062C16.5 4.4375 13.9531 2.35938 11.0312 2.35938C8.10938 2.35938 5.59375 4.4375 5.59375 8.39062ZM3.96875 28.2812H18.1094C18.7969 28.2812 19.1719 27.8594 19.1719 27.0938V15.9844C19.1719 15.2188 18.7969 14.8125 18.1094 14.8125H3.96875C3.29688 14.8125 2.90625 15.2188 2.90625 15.9844V27.0938C2.90625 27.8594 3.29688 28.2812 3.96875 28.2812Z" fill="black"/>
</svg>
